<svg width="64" height="64" viewBox="0 0 64 64" fill="none" xmlns="http://www.w3.org/2000/svg">
<circle cx="32" cy="32" r="32" fill="white"/>
<g clip-path="url(#clip0_1_116)">
<path d="M31.9413 2.19068C31.8043 2.20018 31.6716 2.24267 31.5546 2.3145C31.4376 2.38633 31.3397 2.48539 31.2692 2.60323L29.7587 5.12071C29.4895 5.14299 29.2216 5.16927 28.9547 5.19945H28.9535L26.9817 3.02577C26.8829 2.91654 26.7575 2.83479 26.6176 2.7885C26.4778 2.74222 26.3284 2.73299 26.1839 2.7617C26.0394 2.79041 25.9049 2.85609 25.7934 2.95233C25.6819 3.04857 25.5973 3.17207 25.5477 3.31079L24.5574 6.07335C24.2983 6.14792 24.0403 6.22749 23.7844 6.30958L21.4255 4.56176C21.3073 4.47391 21.1684 4.4182 21.0223 4.40007C20.8761 4.38194 20.7278 4.40201 20.5917 4.45832C20.4556 4.51462 20.3365 4.60524 20.2459 4.72134C20.1553 4.83743 20.0963 4.97503 20.0747 5.12071L19.6422 8.03299C19.4064 8.15516 19.172 8.28119 18.9402 8.41006H18.9391L16.2752 7.15132C16.1422 7.08855 15.9952 7.06128 15.8486 7.07217C15.7019 7.08307 15.5605 7.13175 15.4383 7.21349C15.316 7.29523 15.217 7.40723 15.1508 7.5386C15.0847 7.66997 15.0537 7.81622 15.0609 7.96312L15.2039 10.9153C14.9994 11.0786 14.798 11.2443 14.5984 11.4133L11.7305 10.6969C11.5877 10.661 11.438 10.6628 11.2961 10.702C11.1542 10.7412 11.0248 10.8166 10.9207 10.9207C10.8166 11.0248 10.7413 11.1541 10.702 11.2961C10.6628 11.438 10.661 11.5877 10.6969 11.7305L11.4133 14.5984C11.2443 14.798 11.0786 14.9994 10.9154 15.2039L7.96315 15.0608C7.81625 15.0537 7.66999 15.0847 7.53862 15.1508C7.40726 15.217 7.29525 15.316 7.21351 15.4383C7.13178 15.5605 7.08309 15.7019 7.0722 15.8486C7.0613 15.9952 7.08857 16.1422 7.15134 16.2752L8.41008 18.9402C8.28121 19.1719 8.15519 19.4064 8.03302 19.6422L5.12073 20.0747C4.97505 20.0963 4.83745 20.1552 4.72136 20.2458C4.60527 20.3364 4.51464 20.4556 4.45834 20.5917C4.40203 20.7277 4.38196 20.8761 4.4001 21.0222C4.41823 21.1684 4.47393 21.3073 4.56178 21.4255L6.3096 23.7844C6.22751 24.0403 6.14795 24.2983 6.07338 24.5574L3.31081 25.5477C3.1721 25.5973 3.04859 25.6819 2.95235 25.7934C2.85612 25.9049 2.79044 26.0394 2.76172 26.1839C2.73301 26.3284 2.74224 26.4778 2.78853 26.6176C2.83481 26.7575 2.91656 26.8829 3.02579 26.9817L5.19947 28.9535C5.16925 29.2208 5.14304 29.4891 5.12073 29.7587L2.60326 31.2692C2.47693 31.3448 2.37237 31.4519 2.29976 31.58C2.22716 31.7081 2.189 31.8528 2.189 32C2.189 32.1472 2.22716 32.292 2.29976 32.4201C2.37237 32.5481 2.47693 32.6552 2.60326 32.7309L5.12073 34.2413C5.14301 34.5106 5.1693 34.7795 5.19947 35.0465L3.02579 37.0183C2.91656 37.1171 2.83481 37.2426 2.78853 37.3824C2.74224 37.5222 2.73301 37.6717 2.76172 37.8161C2.79044 37.9606 2.85612 38.0951 2.95235 38.2066C3.04859 38.3181 3.1721 38.4028 3.31081 38.4523L6.07338 39.4426C6.14795 39.7018 6.22751 39.9597 6.3096 40.2156L4.56178 42.5745C4.47393 42.6927 4.41823 42.8316 4.4001 42.9778C4.38196 43.1239 4.40203 43.2723 4.45834 43.4084C4.51464 43.5444 4.60527 43.6636 4.72136 43.7542C4.83745 43.8448 4.97505 43.9037 5.12073 43.9253L8.03302 44.3578C8.15519 44.5937 8.28121 44.8292 8.41008 45.0609L7.15134 47.7248C7.08857 47.8578 7.0613 48.0048 7.0722 48.1515C7.08309 48.2981 7.13178 48.4395 7.21351 48.5618C7.29525 48.684 7.40726 48.7831 7.53862 48.8492C7.66999 48.9153 7.81625 48.9463 7.96315 48.9392L10.9154 48.7961C11.0786 49.0006 11.2443 49.202 11.4133 49.4016L10.6969 52.2696C10.661 52.4124 10.6628 52.562 10.702 52.704C10.7413 52.8459 10.8166 52.9752 10.9207 53.0793C11.0248 53.1834 11.1542 53.2588 11.2961 53.298C11.438 53.3372 11.5877 53.339 11.7305 53.3032L14.5984 52.5867C14.798 52.7557 14.9994 52.9214 15.2039 53.0847L15.0609 56.0369C15.0537 56.1838 15.0847 56.3301 15.1508 56.4614C15.217 56.5928 15.316 56.7048 15.4383 56.7865C15.5605 56.8683 15.7019 56.917 15.8486 56.9278C15.9952 56.9387 16.1422 56.9115 16.2752 56.8487L18.9402 55.59C19.172 55.7188 19.4064 55.8449 19.6422 55.967L20.0747 58.8793C20.0963 59.025 20.1553 59.1626 20.2459 59.2787C20.3365 59.3948 20.4556 59.4854 20.5917 59.5417C20.7278 59.598 20.8761 59.6181 21.0223 59.6C21.1684 59.5818 21.3073 59.5261 21.4255 59.4383L23.7844 57.6904C24.0403 57.7725 24.2983 57.8521 24.5574 57.9267L25.5478 60.6892C25.5973 60.8279 25.6819 60.9515 25.7934 61.0477C25.9049 61.1439 26.0395 61.2096 26.1839 61.2383C26.3284 61.267 26.4778 61.2578 26.6177 61.2115C26.7575 61.1652 26.8829 61.0835 26.9817 60.9743L28.9536 58.8006C29.2209 58.8308 29.4891 58.857 29.7587 58.8793L31.2692 61.3968C31.3448 61.5231 31.4519 61.6277 31.58 61.7003C31.7081 61.7729 31.8528 61.811 32 61.811C32.1473 61.811 32.292 61.7729 32.4201 61.7003C32.5482 61.6277 32.6552 61.5231 32.7309 61.3968L34.2414 58.8793C34.5106 58.8571 34.7785 58.8308 35.0454 58.8006H35.0465L37.0184 60.9743C37.1172 61.0835 37.2426 61.1652 37.3824 61.2115C37.5223 61.2578 37.6717 61.267 37.8162 61.2383C37.9606 61.2096 38.0952 61.1439 38.2067 61.0477C38.3182 60.9515 38.4028 60.8279 38.4523 60.6892L39.4427 57.9267C39.7018 57.8521 39.9598 57.7725 40.2157 57.6904L42.5746 59.4383C42.6928 59.5261 42.8317 59.5818 42.9778 59.6C43.124 59.6181 43.2723 59.598 43.4084 59.5417C43.5445 59.4854 43.6636 59.3948 43.7542 59.2787C43.8448 59.1626 43.9038 59.025 43.9254 58.8793L44.3579 55.967C44.5937 55.8449 44.8281 55.7188 45.0599 55.59H45.061L47.7249 56.8487C47.8579 56.9115 48.0049 56.9387 48.1515 56.9278C48.2982 56.917 48.4396 56.8683 48.5618 56.7865C48.6841 56.7048 48.7831 56.5928 48.8493 56.4614C48.9154 56.3301 48.9464 56.1838 48.9392 56.0369L48.7962 53.0847C49.0007 52.9214 49.2021 52.7557 49.4017 52.5867L52.2696 53.3032C52.4124 53.339 52.5621 53.3372 52.704 53.298C52.8459 53.2588 52.9753 53.1834 53.0794 53.0793C53.1835 52.9752 53.2588 52.8459 53.2981 52.704C53.3373 52.562 53.3391 52.4124 53.3032 52.2696L52.5868 49.4016C52.7558 49.202 52.9215 49.0006 53.0847 48.7961L56.037 48.9392C56.1839 48.9463 56.3301 48.9153 56.4615 48.8492C56.5928 48.7831 56.7048 48.684 56.7866 48.5618C56.8683 48.4395 56.917 48.2981 56.9279 48.1515C56.9388 48.0048 56.9115 47.8578 56.8488 47.7248L55.59 45.0609C55.7191 44.8289 55.8448 44.594 55.9671 44.3578L58.8794 43.9253C59.025 43.9037 59.1626 43.8448 59.2787 43.7542C59.3948 43.6636 59.4855 43.5444 59.5418 43.4084C59.5981 43.2723 59.6181 43.1239 59.6 42.9778C59.5819 42.8316 59.5262 42.6927 59.4383 42.5745L57.6905 40.2156C57.7726 39.9597 57.8521 39.7018 57.9267 39.4426L60.6893 38.4523C60.828 38.4028 60.9515 38.3181 61.0477 38.2066C61.144 38.0951 61.2096 37.9606 61.2383 37.8161C61.2671 37.6717 61.2578 37.5222 61.2115 37.3824C61.1653 37.2426 61.0835 37.1171 60.9743 37.0183L58.8006 35.0454C58.8308 34.7784 58.857 34.5106 58.8793 34.2413L61.3968 32.7309C61.5231 32.6552 61.6277 32.5481 61.7003 32.4201C61.7729 32.292 61.8111 32.1472 61.8111 32C61.8111 31.8528 61.7729 31.7081 61.7003 31.58C61.6277 31.4519 61.5231 31.3448 61.3968 31.2692L58.8793 29.7587C58.8571 29.4895 58.8308 29.2205 58.8006 28.9535L60.9743 26.9817C61.0835 26.8829 61.1653 26.7575 61.2115 26.6176C61.2578 26.4778 61.2671 26.3284 61.2383 26.1839C61.2096 26.0394 61.144 25.9049 61.0477 25.7934C60.9515 25.6819 60.828 25.5973 60.6893 25.5477L57.9267 24.5574C57.8521 24.2983 57.7726 24.0403 57.6905 23.7844L59.4383 21.4255C59.5261 21.3073 59.5819 21.1684 59.6 21.0222C59.6181 20.8761 59.598 20.7277 59.5417 20.5917C59.4854 20.4556 59.3948 20.3364 59.2787 20.2458C59.1626 20.1552 59.025 20.0963 58.8793 20.0747L55.9671 19.6422C55.8449 19.4064 55.7189 19.1708 55.59 18.9391L56.8487 16.2752C56.9115 16.1422 56.9388 15.9952 56.9279 15.8486C56.917 15.7019 56.8683 15.5605 56.7866 15.4383C56.7048 15.316 56.5928 15.217 56.4615 15.1508C56.3301 15.0847 56.1838 15.0537 56.0369 15.0608L53.0847 15.2039C52.9215 14.9994 52.7558 14.798 52.5868 14.5984L53.3032 11.7305C53.3391 11.5877 53.3373 11.438 53.298 11.2961C53.2588 11.1541 53.1835 11.0248 53.0793 10.9207C52.9752 10.8166 52.8459 10.7412 52.704 10.702C52.5621 10.6628 52.4124 10.661 52.2696 10.6969L49.4017 11.4133C49.2021 11.2443 49.0006 11.0786 48.7961 10.9153L48.9392 7.96312C48.9464 7.81622 48.9154 7.66997 48.8492 7.5386C48.7831 7.40723 48.6841 7.29523 48.5618 7.21349C48.4395 7.13175 48.2982 7.08307 48.1515 7.07217C48.0048 7.06128 47.8578 7.08855 47.7248 7.15132L45.061 8.41006C44.8289 8.28102 44.594 8.15531 44.3578 8.03299L43.9253 5.12071C43.9038 4.97503 43.8448 4.83743 43.7542 4.72134C43.6636 4.60524 43.5445 4.51462 43.4084 4.45832C43.2723 4.40201 43.124 4.38194 42.9778 4.40007C42.8317 4.4182 42.6927 4.47391 42.5745 4.56176L40.2157 6.30958C39.9598 6.22749 39.7018 6.14792 39.4427 6.07335L38.4523 3.31079C38.4028 3.17207 38.3182 3.04857 38.2067 2.95233C38.0952 2.85609 37.9606 2.79041 37.8161 2.7617C37.6717 2.73299 37.5222 2.74222 37.3824 2.7885C37.2426 2.83479 37.1171 2.91654 37.0183 3.02577L35.0454 5.19945C34.7785 5.16927 34.5106 5.14299 34.2414 5.12071L32.7309 2.60323C32.6502 2.46828 32.5337 2.35831 32.3943 2.2855C32.2549 2.21268 32.0981 2.17986 31.9413 2.19068ZM32 7.58384C32.4518 7.58384 32.8851 7.76331 33.2046 8.08277C33.524 8.40223 33.7035 8.83551 33.7035 9.28729C33.7035 9.73908 33.524 10.1724 33.2046 10.4918C32.8851 10.8113 32.4518 10.9907 32 10.9907C31.5483 10.9907 31.115 10.8113 30.7955 10.4918C30.4761 10.1724 30.2966 9.73908 30.2966 9.28729C30.2966 8.83551 30.4761 8.40223 30.7955 8.08277C31.115 7.76331 31.5483 7.58384 32 7.58384ZM27.9721 10.5072L30.7956 13.3308C31.1151 13.6501 31.5483 13.8295 32 13.8295C32.4517 13.8295 32.885 13.6501 33.2044 13.3308L36.028 10.5072C42.5921 11.7222 48.1127 15.854 51.2016 21.5165L49.3828 25.0853C49.2813 25.2847 49.22 25.5021 49.2025 25.7251C49.1851 25.9482 49.2117 26.1725 49.2809 26.3852C49.3501 26.598 49.4605 26.7951 49.6059 26.9651C49.7512 27.1352 49.9287 27.275 50.1281 27.3765L53.6836 29.1886C53.8009 30.1087 53.861 31.0473 53.861 32C53.861 37.8269 51.5992 43.1104 47.9034 47.0228L43.9475 46.3962C43.5015 46.3257 43.0457 46.4351 42.6803 46.7004C42.315 46.9658 42.0699 47.3653 41.999 47.8113L41.3724 51.7672C38.5341 53.1106 35.3576 53.861 32 53.861C28.6425 53.861 25.4659 53.1106 22.6277 51.7672L22.0011 47.8113C21.9302 47.3653 21.6851 46.9658 21.3197 46.7004C20.9544 46.4351 20.4986 46.3257 20.0526 46.3962L16.0967 47.0228C12.4009 43.1104 10.139 37.8269 10.139 32C10.139 31.0473 10.1992 30.1076 10.3165 29.1875L13.872 27.3765C14.0714 27.275 14.2488 27.1352 14.3942 26.9651C14.5396 26.7951 14.65 26.598 14.7192 26.3852C14.7884 26.1725 14.815 25.9482 14.7975 25.7251C14.78 25.5021 14.7188 25.2847 14.6173 25.0853L12.7985 21.5165C15.8874 15.854 21.4079 11.7222 27.9721 10.5072ZM10.4884 23.2798C10.637 23.2879 10.7839 23.3155 10.9253 23.3619C11.3549 23.5015 11.7113 23.806 11.9164 24.2084C12.1214 24.6109 12.1583 25.0782 12.0188 25.5078C11.8792 25.9373 11.5747 26.2938 11.1723 26.4989C10.7698 26.7039 10.3025 26.7408 9.87288 26.6013C9.44336 26.4617 9.08689 26.1571 8.88184 25.7547C8.67678 25.3523 8.63993 24.8849 8.77939 24.4554C8.8951 24.0986 9.12532 23.79 9.43433 23.5775C9.74333 23.3649 10.1138 23.2603 10.4884 23.2798ZM53.5117 23.2798C53.8862 23.2603 54.2567 23.3649 54.5657 23.5775C54.8748 23.79 55.105 24.0986 55.2207 24.4554C55.3601 24.8849 55.3233 25.3523 55.1182 25.7547C54.9132 26.1571 54.5567 26.4617 54.1272 26.6013C53.6976 26.7408 53.2302 26.7039 52.8278 26.4989C52.4254 26.2938 52.1209 25.9373 51.9812 25.5078C51.8418 25.0782 51.8786 24.6109 52.0837 24.2084C52.2887 23.806 52.6452 23.5015 53.0747 23.3619C53.2162 23.3155 53.3631 23.2879 53.5117 23.2798ZM18.6053 48.6719C18.9802 48.6622 19.3478 48.7764 19.6511 48.9968C19.8322 49.1283 19.9856 49.2942 20.1025 49.485C20.2195 49.6757 20.2977 49.8877 20.3327 50.1087C20.3677 50.3297 20.3589 50.5555 20.3066 50.773C20.2543 50.9906 20.1597 51.1958 20.0282 51.3768C19.8966 51.5578 19.7307 51.7111 19.5399 51.8279C19.3491 51.9448 19.1371 52.0229 18.9161 52.0578C18.6951 52.0927 18.4693 52.0837 18.2518 52.0314C18.0343 51.9791 17.8292 51.8844 17.6482 51.7528C17.283 51.4871 17.0383 51.0872 16.9678 50.6412C16.8973 50.1951 17.0068 49.7393 17.2723 49.3739C17.4257 49.1625 17.6258 48.9892 17.8569 48.8675C18.0881 48.7458 18.3441 48.6789 18.6053 48.6719ZM45.3948 48.6719C45.6559 48.6789 45.912 48.7458 46.1431 48.8675C46.3743 48.9892 46.5743 49.1625 46.7278 49.3739C46.9933 49.7393 47.1028 50.1951 47.0323 50.6412C46.9618 51.0872 46.7171 51.4871 46.3519 51.7528C46.1709 51.8844 45.9658 51.9791 45.7483 52.0314C45.5307 52.0837 45.305 52.0927 45.084 52.0578C44.863 52.0229 44.651 51.9448 44.4602 51.8279C44.2694 51.7111 44.1035 51.5578 43.9719 51.3768C43.8403 51.1958 43.7457 50.9906 43.6935 50.773C43.6412 50.5555 43.6323 50.3297 43.6674 50.1087C43.7024 49.8877 43.7806 49.6757 43.8975 49.485C44.0145 49.2942 44.1679 49.1283 44.349 48.9968C44.6523 48.7764 45.0199 48.6622 45.3948 48.6719Z" fill="black"/>
<rect width="5.67818" height="5.67818" transform="translate(22.9149 22.9149)" fill="black"/>
<rect width="5.67818" height="5.67818" transform="translate(35.4069 16.6689)" fill="black"/>
<rect width="5.67818" height="5.67818" transform="translate(41.6529 22.9149)" fill="black"/>
<rect width="5.67818" height="5.67818" transform="translate(41.6529 10.4229)" fill="black"/>
<rect width="5.67818" height="5.67818" transform="translate(35.4069 29.1609)" fill="black"/>
<rect width="5.67818" height="5.67818" transform="translate(35.4069 22.9149)" fill="black"/>
<rect width="5.67818" height="5.67818" transform="translate(29.1609 29.1609)" fill="black"/>
<rect width="5.67818" height="5.67818" transform="translate(29.1609 35.4069)" fill="black"/>
<rect width="5.67818" height="5.67818" transform="translate(29.1609 41.6529)" fill="black"/>
<rect width="5.67818" height="5.67818" transform="translate(35.4069 47.8989)" fill="black"/>
<rect width="5.67818" height="5.67818" transform="translate(41.6529 35.4069)" fill="black"/>
<rect width="5.67818" height="5.67818" transform="translate(22.9149 35.4069)" fill="black"/>
<rect width="5.67818" height="5.67818" transform="translate(16.6689 29.1609)" fill="black"/>
<rect width="5.67818" height="5.67818" transform="translate(10.4229 35.4069)" fill="black"/>
<rect width="5.67818" height="5.67818" transform="translate(10.4229 41.6529)" fill="black"/>
<rect width="5.67818" height="5.67818" transform="translate(16.6689 16.6689)" fill="black"/>
<rect width="5.67818" height="5.67818" transform="translate(10.4229 16.6689)" fill="black"/>
<rect width="5.67818" height="5.67818" transform="translate(16.6689 10.4229)" fill="black"/>
<rect width="5.67818" height="5.67818" transform="translate(47.8989 35.4069)" fill="black"/>
<rect width="5.67818" height="5.67818" transform="translate(47.8989 41.6529)" fill="black"/>
</g>
<defs>
<clipPath id="clip0_1_116">
<rect width="60.1887" height="60.1887" fill="white" transform="translate(1.90567 1.90564)"/>
</clipPath>
</defs>
</svg>
